<mxfile host="app.diagrams.net" modified="2024-04-18T02:17:37.266Z" agent="Mozilla/5.0 (Windows NT 10.0; Win64; x64) AppleWebKit/537.36 (KHTML, like Gecko) Chrome/123.0.0.0 Safari/537.36 Edg/123.0.0.0" etag="8QlCr38d_GKo0m3k9Pli" version="24.2.5" type="device">
  <diagram name="Page-1" id="m7xhTuWL6xcb4KafhupM">
    <mxGraphModel dx="1109" dy="601" grid="1" gridSize="10" guides="1" tooltips="1" connect="1" arrows="1" fold="1" page="1" pageScale="1" pageWidth="850" pageHeight="1100" math="0" shadow="0">
      <root>
        <mxCell id="0" />
        <mxCell id="1" parent="0" />
        <mxCell id="_VyfLQM1-WYcAUPxM_zo-4" style="rounded=0;orthogonalLoop=1;jettySize=auto;html=1;exitX=0.5;exitY=1;exitDx=0;exitDy=0;entryX=0.5;entryY=0;entryDx=0;entryDy=0;endArrow=none;endFill=0;" parent="1" source="_VyfLQM1-WYcAUPxM_zo-1" target="_VyfLQM1-WYcAUPxM_zo-2" edge="1">
          <mxGeometry relative="1" as="geometry" />
        </mxCell>
        <mxCell id="_VyfLQM1-WYcAUPxM_zo-5" style="rounded=0;orthogonalLoop=1;jettySize=auto;html=1;exitX=0.5;exitY=1;exitDx=0;exitDy=0;entryX=0.5;entryY=0;entryDx=0;entryDy=0;endArrow=none;endFill=0;" parent="1" source="_VyfLQM1-WYcAUPxM_zo-1" target="_VyfLQM1-WYcAUPxM_zo-3" edge="1">
          <mxGeometry relative="1" as="geometry" />
        </mxCell>
        <mxCell id="hwvDTWMs9kcyj-KXojDc-2" style="edgeStyle=orthogonalEdgeStyle;rounded=0;orthogonalLoop=1;jettySize=auto;html=1;exitX=0.5;exitY=1;exitDx=0;exitDy=0;entryX=0.5;entryY=0;entryDx=0;entryDy=0;endArrow=none;endFill=0;" edge="1" parent="1" source="_VyfLQM1-WYcAUPxM_zo-1" target="hwvDTWMs9kcyj-KXojDc-1">
          <mxGeometry relative="1" as="geometry" />
        </mxCell>
        <mxCell id="_VyfLQM1-WYcAUPxM_zo-1" value="bookS&lt;span style=&quot;background-color: initial;&quot;&gt;eat&lt;/span&gt;" style="rounded=0;whiteSpace=wrap;html=1;" parent="1" vertex="1">
          <mxGeometry x="340" y="220" width="120" height="60" as="geometry" />
        </mxCell>
        <mxCell id="_VyfLQM1-WYcAUPxM_zo-2" value="Seating" style="rounded=0;whiteSpace=wrap;html=1;" parent="1" vertex="1">
          <mxGeometry x="180" y="440" width="120" height="60" as="geometry" />
        </mxCell>
        <mxCell id="_VyfLQM1-WYcAUPxM_zo-3" value="printSeating" style="rounded=0;whiteSpace=wrap;html=1;" parent="1" vertex="1">
          <mxGeometry x="500" y="440" width="120" height="60" as="geometry" />
        </mxCell>
        <mxCell id="_VyfLQM1-WYcAUPxM_zo-8" value="" style="endArrow=open;html=1;rounded=0;startArrow=oval;startFill=0;endFill=0;" parent="1" edge="1">
          <mxGeometry width="50" height="50" relative="1" as="geometry">
            <mxPoint x="470" y="340" as="sourcePoint" />
            <mxPoint x="520" y="390" as="targetPoint" />
          </mxGeometry>
        </mxCell>
        <mxCell id="_VyfLQM1-WYcAUPxM_zo-9" value="&lt;font style=&quot;font-size: 10px;&quot;&gt;seatsFull&lt;/font&gt;" style="text;html=1;strokeColor=none;fillColor=none;align=center;verticalAlign=middle;whiteSpace=wrap;rounded=0;" parent="1" vertex="1">
          <mxGeometry x="485" y="340" width="60" height="30" as="geometry" />
        </mxCell>
        <mxCell id="_VyfLQM1-WYcAUPxM_zo-10" value="" style="endArrow=oval;html=1;rounded=0;startArrow=open;startFill=0;endFill=0;" parent="1" edge="1">
          <mxGeometry width="50" height="50" relative="1" as="geometry">
            <mxPoint x="330" y="340" as="sourcePoint" />
            <mxPoint x="370" y="300" as="targetPoint" />
          </mxGeometry>
        </mxCell>
        <mxCell id="_VyfLQM1-WYcAUPxM_zo-11" value="" style="endArrow=open;html=1;rounded=0;startArrow=oval;startFill=0;endFill=0;" parent="1" edge="1">
          <mxGeometry width="50" height="50" relative="1" as="geometry">
            <mxPoint x="260" y="410" as="sourcePoint" />
            <mxPoint x="300" y="370" as="targetPoint" />
          </mxGeometry>
        </mxCell>
        <mxCell id="_VyfLQM1-WYcAUPxM_zo-12" value="&lt;font style=&quot;font-size: 10px;&quot;&gt;seatsEmpty&lt;/font&gt;" style="text;html=1;strokeColor=none;fillColor=none;align=center;verticalAlign=middle;whiteSpace=wrap;rounded=0;" parent="1" vertex="1">
          <mxGeometry x="290" y="300" width="60" height="30" as="geometry" />
        </mxCell>
        <mxCell id="_VyfLQM1-WYcAUPxM_zo-14" value="&lt;font style=&quot;font-size: 10px;&quot;&gt;seatsFull&lt;/font&gt;" style="text;html=1;strokeColor=none;fillColor=none;align=center;verticalAlign=middle;whiteSpace=wrap;rounded=0;" parent="1" vertex="1">
          <mxGeometry x="220" y="370" width="60" height="30" as="geometry" />
        </mxCell>
        <mxCell id="hwvDTWMs9kcyj-KXojDc-4" style="edgeStyle=orthogonalEdgeStyle;rounded=0;orthogonalLoop=1;jettySize=auto;html=1;exitX=0.5;exitY=1;exitDx=0;exitDy=0;entryX=0.5;entryY=0;entryDx=0;entryDy=0;endArrow=none;endFill=0;" edge="1" parent="1" source="hwvDTWMs9kcyj-KXojDc-1" target="hwvDTWMs9kcyj-KXojDc-3">
          <mxGeometry relative="1" as="geometry" />
        </mxCell>
        <mxCell id="hwvDTWMs9kcyj-KXojDc-1" value="ProcessingBooking" style="rounded=0;whiteSpace=wrap;html=1;" vertex="1" parent="1">
          <mxGeometry x="340" y="500" width="120" height="60" as="geometry" />
        </mxCell>
        <mxCell id="hwvDTWMs9kcyj-KXojDc-3" value="receiptFunction" style="rounded=0;whiteSpace=wrap;html=1;" vertex="1" parent="1">
          <mxGeometry x="340" y="760" width="120" height="60" as="geometry" />
        </mxCell>
        <mxCell id="hwvDTWMs9kcyj-KXojDc-7" value="" style="endArrow=oval;html=1;rounded=0;endFill=0;startArrow=open;startFill=0;" edge="1" parent="1">
          <mxGeometry width="50" height="50" relative="1" as="geometry">
            <mxPoint x="410" y="480" as="sourcePoint" />
            <mxPoint x="410" y="440" as="targetPoint" />
          </mxGeometry>
        </mxCell>
        <mxCell id="hwvDTWMs9kcyj-KXojDc-8" value="" style="endArrow=oval;html=1;rounded=0;startArrow=open;startFill=0;endFill=0;" edge="1" parent="1">
          <mxGeometry width="50" height="50" relative="1" as="geometry">
            <mxPoint x="410" y="360" as="sourcePoint" />
            <mxPoint x="410" y="320" as="targetPoint" />
          </mxGeometry>
        </mxCell>
        <mxCell id="hwvDTWMs9kcyj-KXojDc-12" value="" style="endArrow=oval;html=1;rounded=0;endFill=0;startArrow=open;startFill=0;" edge="1" parent="1">
          <mxGeometry width="50" height="50" relative="1" as="geometry">
            <mxPoint x="410" y="420" as="sourcePoint" />
            <mxPoint x="410" y="380" as="targetPoint" />
          </mxGeometry>
        </mxCell>
        <mxCell id="hwvDTWMs9kcyj-KXojDc-14" value="" style="endArrow=oval;html=1;rounded=0;endFill=0;startArrow=open;startFill=0;" edge="1" parent="1">
          <mxGeometry width="50" height="50" relative="1" as="geometry">
            <mxPoint x="410" y="740" as="sourcePoint" />
            <mxPoint x="410" y="700" as="targetPoint" />
          </mxGeometry>
        </mxCell>
        <mxCell id="hwvDTWMs9kcyj-KXojDc-15" value="" style="endArrow=oval;html=1;rounded=0;startArrow=open;startFill=0;endFill=0;" edge="1" parent="1">
          <mxGeometry width="50" height="50" relative="1" as="geometry">
            <mxPoint x="410" y="620" as="sourcePoint" />
            <mxPoint x="410" y="580" as="targetPoint" />
          </mxGeometry>
        </mxCell>
        <mxCell id="hwvDTWMs9kcyj-KXojDc-16" value="" style="endArrow=oval;html=1;rounded=0;endFill=0;startArrow=open;startFill=0;" edge="1" parent="1">
          <mxGeometry width="50" height="50" relative="1" as="geometry">
            <mxPoint x="410" y="680" as="sourcePoint" />
            <mxPoint x="410" y="640" as="targetPoint" />
          </mxGeometry>
        </mxCell>
        <mxCell id="hwvDTWMs9kcyj-KXojDc-18" value="&lt;font style=&quot;font-size: 10px;&quot;&gt;results&lt;/font&gt;" style="text;html=1;align=center;verticalAlign=middle;whiteSpace=wrap;rounded=0;" vertex="1" parent="1">
          <mxGeometry x="400" y="320" width="60" height="30" as="geometry" />
        </mxCell>
        <mxCell id="hwvDTWMs9kcyj-KXojDc-19" value="&lt;font style=&quot;font-size: 10px;&quot;&gt;personPrices&lt;/font&gt;" style="text;html=1;align=center;verticalAlign=middle;whiteSpace=wrap;rounded=0;" vertex="1" parent="1">
          <mxGeometry x="420" y="380" width="60" height="30" as="geometry" />
        </mxCell>
        <mxCell id="hwvDTWMs9kcyj-KXojDc-20" value="&lt;font style=&quot;font-size: 10px;&quot;&gt;howManySeats&lt;/font&gt;" style="text;html=1;align=center;verticalAlign=middle;whiteSpace=wrap;rounded=0;" vertex="1" parent="1">
          <mxGeometry x="420" y="440" width="60" height="30" as="geometry" />
        </mxCell>
        <mxCell id="hwvDTWMs9kcyj-KXojDc-21" value="&lt;font style=&quot;font-size: 10px;&quot;&gt;results&lt;/font&gt;" style="text;html=1;align=center;verticalAlign=middle;whiteSpace=wrap;rounded=0;" vertex="1" parent="1">
          <mxGeometry x="400" y="580" width="60" height="30" as="geometry" />
        </mxCell>
        <mxCell id="hwvDTWMs9kcyj-KXojDc-23" value="&lt;span style=&quot;font-size: 10px;&quot;&gt;totalSeats&lt;/span&gt;" style="text;html=1;align=center;verticalAlign=middle;whiteSpace=wrap;rounded=0;" vertex="1" parent="1">
          <mxGeometry x="410" y="640" width="60" height="30" as="geometry" />
        </mxCell>
        <mxCell id="hwvDTWMs9kcyj-KXojDc-24" value="&lt;font style=&quot;font-size: 10px;&quot;&gt;seatsBooked&lt;/font&gt;" style="text;html=1;align=center;verticalAlign=middle;whiteSpace=wrap;rounded=0;" vertex="1" parent="1">
          <mxGeometry x="420" y="700" width="60" height="30" as="geometry" />
        </mxCell>
      </root>
    </mxGraphModel>
  </diagram>
</mxfile>
